<svg xmlns="http://www.w3.org/2000/svg" width="41" height="41" viewBox="1034 4441 41 41"><g data-name="Social"><path d="M1054.5 4482c11.322 0 20.5-9.178 20.5-20.5s-9.178-20.5-20.5-20.5-20.5 9.178-20.5 20.5 9.178 20.5 20.5 20.5Z" fill="#fff" fill-rule="evenodd" data-name="Background"/><path d="M1057.108 4459.244a3.523 3.523 0 0 0-1.024-.168c-.416 0-1.312.287-1.312.843v1.334h2.128v2.244h-2.128v6.193h-2.145v-6.193h-1.056v-2.244h1.056v-1.131c0-1.704.737-3.122 2.513-3.122.608 0 1.696.034 2.288.253l-.32 1.991Z" fill="#080809" fill-rule="evenodd" data-name="Facebook Icon"/></g></svg>