<svg xmlns="http://www.w3.org/2000/svg" width="16" height="16" viewBox="840 2843 16 16"><g data-name="Group"><path d="M840.267 2858.467h1.6v-8.8c0-.148.12-.267.266-.267h3.734v-6.133c0-.148.12-.267.266-.267h6.934c.147 0 .266.12.266.267v15.2h2.4a.267.267 0 0 1 0 .533h-15.466a.267.267 0 0 1 0-.533Zm10.133 0h1.067v-2.4a.267.267 0 0 0-.267-.267h-.533a.267.267 0 0 0-.267.267v2.4Zm-1.067-8.8v8.8h.534v-2.4a.8.8 0 0 1 .8-.8h.533a.8.8 0 0 1 .8.8v2.4h.8v-14.934h-6.4v5.867h2.667c.147 0 .266.12.266.267Zm-6.933 8.8h6.4v-8.534h-6.4v8.534Z" fill="#84829a" fill-rule="evenodd" data-name="Vector"/><path d="M847.467 2846.733h1.6c.147 0 .266.12.266.267v1.6c0 .147-.12.267-.266.267h-1.6a.267.267 0 0 1-.267-.267v-1.6c0-.147.12-.267.267-.267Zm.266 1.6h1.067v-1.066h-1.067v1.066ZM847.467 2844.067h1.6c.147 0 .266.12.266.266v1.6c0 .148-.12.267-.266.267h-1.6a.267.267 0 0 1-.267-.267v-1.6c0-.147.12-.266.267-.266Zm.266 1.6h1.067v-1.067h-1.067v1.067ZM850.133 2846.733h1.6c.148 0 .267.12.267.267v1.6c0 .147-.12.267-.267.267h-1.6a.267.267 0 0 1-.266-.267v-1.6c0-.147.12-.267.266-.267Zm.267 1.6h1.067v-1.066H850.4v1.066ZM850.133 2844.067h1.6c.148 0 .267.12.267.266v1.6c0 .148-.12.267-.267.267h-1.6a.267.267 0 0 1-.266-.267v-1.6c0-.147.12-.266.266-.266Zm.267 1.6h1.067v-1.067H850.4v1.067ZM850.133 2849.4h1.6c.148 0 .267.12.267.267v1.6c0 .147-.12.266-.267.266h-1.6a.267.267 0 0 1-.266-.266v-1.6c0-.148.12-.267.266-.267Zm.267 1.6h1.067v-1.067H850.4V2851ZM850.133 2852.067h1.6c.148 0 .267.12.267.266v1.6c0 .148-.12.267-.267.267h-1.6a.267.267 0 0 1-.266-.267v-1.6c0-.147.12-.266.266-.266Zm.267 1.6h1.067v-1.067H850.4v1.067ZM845.067 2855.267h-1.6a.267.267 0 0 1-.267-.267v-1.6c0-.147.12-.267.267-.267h1.6c.147 0 .266.12.266.267v1.6c0 .147-.12.267-.266.267Zm-.267-1.6h-1.067v1.066h1.067v-1.066ZM845.067 2852.6h-1.6a.267.267 0 0 1-.267-.267v-1.6c0-.147.12-.266.267-.266h1.6c.147 0 .266.119.266.266v1.6c0 .147-.12.267-.266.267Zm-.267-1.6h-1.067v1.067h1.067V2851ZM845.067 2857.933h-1.6a.267.267 0 0 1-.267-.266v-1.6c0-.148.12-.267.267-.267h1.6c.147 0 .266.12.266.267v1.6c0 .147-.12.266-.266.266Zm-.267-1.6h-1.067v1.067h1.067v-1.067ZM847.733 2855.267h-1.6a.267.267 0 0 1-.266-.267v-1.6c0-.147.12-.267.266-.267h1.6c.148 0 .267.12.267.267v1.6c0 .147-.12.267-.267.267Zm-.266-1.6H846.4v1.066h1.067v-1.066ZM847.733 2852.6h-1.6a.267.267 0 0 1-.266-.267v-1.6c0-.147.12-.266.266-.266h1.6c.148 0 .267.119.267.266v1.6c0 .147-.12.267-.267.267Zm-.266-1.6H846.4v1.067h1.067V2851ZM847.733 2857.933h-1.6a.267.267 0 0 1-.266-.266v-1.6c0-.148.12-.267.266-.267h1.6c.148 0 .267.12.267.267v1.6c0 .147-.12.266-.267.266Zm-.266-1.6H846.4v1.067h1.067v-1.067Z" fill="#84829a" fill-rule="evenodd" data-name="Vector"/></g></svg>