<svg xmlns="http://www.w3.org/2000/svg" width="92" height="78" viewBox="207 1186 92 78"><g data-name="Group 48"><path d="M281 1264h-27a5 5 0 0 1-5-5v-34a10 10 0 0 1 10-10h35a5 5 0 0 1 5 5v26a18 18 0 0 1-18 18z" fill="#fff1da" fill-rule="evenodd" data-name="Rectangle 157"/><g data-name="satellite-dish"><g data-name="Group"><path d="m230.527 1236.657-1.888-.903-11.217 16.584h12.518l1.206-.786v-14.327l-.619-.568Z" fill="#407093" fill-rule="evenodd" data-name="Vector"/><path d="m228.81 1235.835-4.246-2.032h-.8l-12.003 17.749.714.786h5.173l11.162-16.503Z" fill="#365e7d" fill-rule="evenodd" data-name="Vector"/><path d="M233.4 1251.552h-16.552c-.752 0-1.362.609-1.362 1.361v1.725c0 .752.61 1.362 1.361 1.362H233.4c.752 0 1.362-.61 1.362-1.362v-1.725c0-.752-.61-1.361-1.362-1.361Z" fill="#4a80aa" fill-rule="evenodd" data-name="Vector"/><path d="M215.768 1254.638v-1.725c0-.752.61-1.361 1.361-1.361h-8.767c-.752 0-1.362.609-1.362 1.361v1.725c0 .752.61 1.362 1.362 1.362h8.767c-.752 0-1.361-.61-1.361-1.362Z" fill="#407093" fill-rule="evenodd" data-name="Vector"/><path d="M228.24 1225.983a7.992 7.992 0 0 0 4.338 10.94 7.797 7.797 0 0 0 3.34-2.093v-1.74l-7.678-7.107Z" fill="#4a80aa" fill-rule="evenodd" data-name="Vector"/><path d="M227.577 1229.486c0-1.218.281-2.369.78-3.395l-2.454-2.272h-.996a7.791 7.791 0 0 0 7.901 13.026 7.793 7.793 0 0 1-5.231-7.359Z" fill="#407093" fill-rule="evenodd" data-name="Vector"/><path d="M272.812 1186.925a3.157 3.157 0 0 0-4.465 0l-3.013 3.013v.381l3.76 3.92.705.163 3.013-3.013a3.157 3.157 0 0 0 0-4.464Z" fill="#ffd086" fill-rule="evenodd" data-name="Vector"/><path d="M273.645 1188.415a3.138 3.138 0 0 0-.833-1.49 3.157 3.157 0 0 0-4.465 0l-3.013 3.013v.381l1.994 2.079a275.995 275.995 0 0 1 2.976-3.065c1.012-1.011 2.49-1.019 3.34-.918Z" fill="#ffc365" fill-rule="evenodd" data-name="Vector"/><g data-name="Group"><path d="M262.497 1194.95c-.034 0-.07-.002-.104-.005l-34.817-3.427a1.056 1.056 0 1 1 .207-2.103l34.817 3.427a1.056 1.056 0 0 1-.103 2.108Z" fill="#365e7d" fill-rule="evenodd" data-name="Vector"/></g><g data-name="Group"><path d="M237.646 1201.468a1.057 1.057 0 0 1-.267-2.078l24.85-6.518a1.057 1.057 0 0 1 .536 2.043l-24.85 6.518c-.09.024-.18.035-.27.035Z" fill="#407093" fill-rule="evenodd" data-name="Vector"/></g><g data-name="Group"><path d="M269.246 1233.136c-.537 0-.996-.408-1.05-.954l-3.405-34.837a1.057 1.057 0 0 1 2.102-.206l3.406 34.838a1.057 1.057 0 0 1-1.053 1.159Z" fill="#365e7d" fill-rule="evenodd" data-name="Vector"/></g><g data-name="Group"><path d="M259.225 1223.247a1.056 1.056 0 0 1-1.022-1.327l6.615-24.946a1.056 1.056 0 0 1 2.042.541l-6.614 24.947a1.057 1.057 0 0 1-1.02.785Z" fill="#407093" fill-rule="evenodd" data-name="Vector"/></g><path d="m262.307 1192.964 3.02-3.02 4.464 4.464-3.02 3.02-4.464-4.464Z" fill="#ffc365" fill-rule="evenodd" data-name="Vector"/><path d="M264.6 1195.246c.727-.76 1.86-1.946 2.957-3.086l-2.222-2.223-3.021 3.021 2.287 2.288Z" fill="#ffa90f" fill-rule="evenodd" data-name="Vector"/><g data-name="Group"><path d="M267.45 1199.152c-.27 0-.54-.103-.746-.31l-5.81-5.809a1.056 1.056 0 1 1 1.494-1.494l5.81 5.81a1.056 1.056 0 0 1-.747 1.803Z" fill="#4a80aa" fill-rule="evenodd" data-name="Vector"/></g><path d="m268.133 1235.038-35.371-35.678c-4.69 10.587-5.504 21.951-1.993 31.751 9.695 8.746 24.179 10.09 37.512 4.592l-.148-.665Z" fill="#b5dcff" fill-rule="evenodd" data-name="Vector"/><g data-name="Group"><path d="m232.95 1199.55-8.104-8.174-.812.08c-5.71 13.847-4.042 28.936 5.634 38.612a29.438 29.438 0 0 0 1.817 1.67c-4.079-9.788-3.416-21.43 1.465-32.188Z" fill="#8bcaff" fill-rule="evenodd" data-name="Vector"/></g><path d="m271.365 1232.502-35.874-35.874a1.73 1.73 0 0 0-.964.487l-1.56 1.56a1.732 1.732 0 0 0-.507 1.212l35.76 35.76a1.361 1.361 0 0 0 1.925 0l1.22-1.22a1.362 1.362 0 0 0 0-1.925Z" fill="#dbedff" fill-rule="evenodd" data-name="Vector"/><path d="m233.02 1198.702 1.528-1.528a1.696 1.696 0 0 1 1.003-.486l-8.316-8.316a1.362 1.362 0 0 0-1.925 0l-1.22 1.22a1.361 1.361 0 0 0 0 1.925l8.433 8.434a1.7 1.7 0 0 1 .497-1.249Z" fill="#b5dcff" fill-rule="evenodd" data-name="Vector"/></g></g></g></svg>