<svg xmlns="http://www.w3.org/2000/svg" width="47" height="48" viewBox="186 2624 47 48"><g data-name="Group 7"><path d="M199 2624h21a13 13 0 0 1 13 13v22a13 13 0 0 1-13 13h-21a13 13 0 0 1-13-13v-22a13 13 0 0 1 13-13z" fill="#f0bb1f" fill-rule="evenodd" data-name="Rectangle 21"/><g data-name="selection 1"><g data-name="Group"><path d="M199.545 2641.475a.549.549 0 0 1-.545-.539v-3.391c0-.302.243-.545.545-.545h3.391c.297 0 .54.243.54.545v1.18h13.049v-1.18c0-.297.242-.54.539-.545h3.391a.55.55 0 0 1 .545.545v3.391c0 .297-.243.54-.545.54h-1.18v13.049h1.18c.297 0 .54.242.545.539v3.391a.55.55 0 0 1-.545.545h-3.391a.542.542 0 0 1-.54-.545v-1.18h-13.049v1.18c0 .297-.242.54-.539.545h-3.391a.55.55 0 0 1-.545-.545v-3.391c0-.297.243-.54.545-.54h1.18v-13.049h-1.18Zm20.377-1.078v-2.319h-2.32v2.32h2.32Zm-2.32 17.525h2.32v-2.32h-2.32v2.32Zm-14.127-2.858v1.132h13.05v-1.132a.54.54 0 0 1 .539-.54h1.132v-13.049h-1.132a.54.54 0 0 1-.54-.539v-1.132h-13.049v1.132a.54.54 0 0 1-.539.54h-1.132v13.049h1.132a.54.54 0 0 1 .54.539Zm-3.397.539v2.319h2.32v-2.32h-2.32Zm2.32-15.206v-2.319h-2.32v2.32h2.32Z" fill="#fff" fill-rule="evenodd" data-name="Vector"/></g></g></g></svg>