<svg xmlns="http://www.w3.org/2000/svg" width="77" height="66" viewBox="1125 1197 77 66"><g data-name="Group 49"><path d="M1157 1214h35a10 10 0 0 1 10 10v34a5 5 0 0 1-5 5h-27a18 18 0 0 1-18-18v-26a5 5 0 0 1 5-5z" fill="#fff1da" fill-rule="evenodd" data-name="Rectangle 160"/><g data-name="power-supply 1"><g data-name="Group"><path d="M1175 1224.848v-5.696a2.022 2.022 0 0 0-2.022-2.022h-2.179a2.02 2.02 0 0 1-1.918-1.385 19.756 19.756 0 0 0-1.106-2.669 2.022 2.022 0 0 1 .375-2.339l1.542-1.541c.79-.79.79-2.07 0-2.86l-4.028-4.028c-.79-.79-2.07-.79-2.86 0l-1.541 1.542a2.022 2.022 0 0 1-2.34.375 19.756 19.756 0 0 0-2.668-1.107 2.02 2.02 0 0 1-1.385-1.917v-2.18a2.022 2.022 0 0 0-2.022-2.021h-5.696a2.022 2.022 0 0 0-2.022 2.022v2.179a2.02 2.02 0 0 1-1.385 1.918c-.922.305-1.813.675-2.669 1.106a2.022 2.022 0 0 1-2.339-.375l-1.541-1.542c-.79-.79-2.07-.79-2.86 0l-4.028 4.028c-.79.79-.79 2.07 0 2.86l1.542 1.541c.617.617.767 1.56.375 2.34-.43.855-.801 1.747-1.107 2.668a2.02 2.02 0 0 1-1.186 1.248c-.229.089-.375.237-.63.237h-2.18a2.022 2.022 0 0 0-2.021 2.022v5.496c0 1.116.905 2.022 2.022 2.022h2.178c.871 0 1.644.658 1.918 1.485.305.921.676 1.813 1.106 2.669.392.78.242 1.722-.375 2.339l-1.44 1.541c-.79.79-.79 2.07 0 2.86l3.826 3.827c.79.79 2.07.79 2.86 0l1.541-1.542a2.022 2.022 0 0 1 2.34-.375c.855.43 1.948.902 2.87 1.207a2.02 2.02 0 0 1 1.384 1.918v2.179c0 1.116.905 2.021 2.022 2.021h5.395a2.022 2.022 0 0 0 2.022-2.021v-2.18c0-.255.148-.401.237-.63a2.02 2.02 0 0 1 1.248-1.186 19.756 19.756 0 0 0 2.669-1.107 2.022 2.022 0 0 1 2.339.375l1.541 1.542c.79.79 2.07.79 2.86 0l4.028-4.028c.79-.79.79-2.07 0-2.86l-1.542-1.541a2.022 2.022 0 0 1-.375-2.34c.43-.855.802-1.747 1.107-2.668a2.02 2.02 0 0 1 1.917-1.385h2.18a2.022 2.022 0 0 0 2.021-2.022Z" fill="#b6c4cf" fill-rule="evenodd" data-name="Vector"/><path d="M1155.007 1242.068a2.023 2.023 0 0 0-.137.732v2.178a2.022 2.022 0 0 1-2.022 2.022h-5.696a2.022 2.022 0 0 1-2.022-2.022v-2.178a2.02 2.02 0 0 0-1.386-1.919 19.769 19.769 0 0 1-2.668-1.105 2.022 2.022 0 0 0-2.339.374l-1.54 1.541c-.79.79-2.071.79-2.861 0l-4.028-4.027a2.024 2.024 0 0 1 0-2.86l1.542-1.541c.617-.617.767-1.56.374-2.34-.43-.856-.8-1.747-1.105-2.668a2.02 2.02 0 0 0-1.919-1.385h-2.178a2.022 2.022 0 0 1-2.022-2.022v-5.696c0-1.117.905-2.022 2.022-2.022h2.178c.256 0 .503-.049.732-.137-.002.126-.003.252-.003.38 0 13.64 11.058 24.698 24.699 24.698.127 0 .253 0 .379-.003Z" fill="#9facba" fill-rule="evenodd" data-name="Vector"/><path d="M1166.6 1222c0 9.168-7.432 16.6-16.6 16.6-9.168 0-16.6-7.432-16.6-16.6 0-9.168 7.432-16.6 16.6-16.6 9.168 0 16.6 7.432 16.6 16.6Z" fill="#9facba" fill-rule="evenodd" data-name="Vector"/><path d="M1163.078 1222c0 7.223-5.855 13.078-13.078 13.078-7.223 0-13.078-5.855-13.078-13.078 0-7.223 5.855-13.078 13.078-13.078 7.223 0 13.078 5.855 13.078 13.078Z" fill="#f8f7f7" fill-rule="evenodd" data-name="Vector"/></g></g></g></svg>