<svg xmlns="http://www.w3.org/2000/svg" width="47" height="48" viewBox="186 2848 47 48"><g data-name="Group 11"><path d="M199 2848h21a13 13 0 0 1 13 13v22a13 13 0 0 1-13 13h-21a13 13 0 0 1-13-13v-22a13 13 0 0 1 13-13z" fill="#006380" fill-rule="evenodd" data-name="Rectangle 22"/><g data-name="taxi 1"><g data-name="Taxi Car Cab Vehicle Transport"><path d="M202.5 2874.125a1.5 1.5 0 1 0 0 3 1.5 1.5 0 0 0 0-3Zm0 2.25a.75.75 0 1 1 0-1.5.75.75 0 0 1 0 1.5ZM217.5 2874.125a1.5 1.5 0 1 0 0 3 1.5 1.5 0 0 0 0-3Zm0 2.25a.75.75 0 1 1 0-1.5.75.75 0 0 1 0 1.5ZM206.625 2876h6.75v.75h-6.75v-.75ZM206.625 2874.5h6.75v.75h-6.75v-.75ZM208.875 2868.875h2.25v.75h-2.25v-.75Z" fill="#fff" fill-rule="evenodd" data-name="Vector"/><path d="M221.25 2872.25v-.75a1.128 1.128 0 0 0-1.125-1.125h-1.485l-.776-2.722-.233-.927a1.125 1.125 0 0 0-1.091-.851h-3.165v-1.5a.752.752 0 0 0-.75-.75h-5.25a.752.752 0 0 0-.75.75v1.5h-3.165a1.125 1.125 0 0 0-1.091.851l-.229.923-.78 2.726h-1.485a1.128 1.128 0 0 0-1.125 1.125v.75a1.122 1.122 0 0 0 .529.949 1.866 1.866 0 0 0-.529 1.301v4.5a1.12 1.12 0 0 0 .375.833v1.417a1.128 1.128 0 0 0 1.125 1.125h3a1.128 1.128 0 0 0 1.125-1.125v-1.125h11.25v1.125a1.128 1.128 0 0 0 1.125 1.125h3a1.128 1.128 0 0 0 1.125-1.125v-1.417a1.12 1.12 0 0 0 .375-.833v-4.5c0-.486-.19-.953-.529-1.301a1.122 1.122 0 0 0 .529-.949Zm-13.875-7.875h5.25v1.5h-5.25v-1.5Zm-4.279 2.535a.375.375 0 0 1 .364-.285h13.08a.375.375 0 0 1 .364.285l.116.465h-14.04l.116-.465Zm-.315 1.215h14.438l1.282 4.5h-10.785a2.247 2.247 0 0 0-4.432 0h-1.785l1.282-4.5Zm4.167 4.5h-2.896a1.494 1.494 0 0 1 2.896 0Zm-7.448-1.125a.375.375 0 0 1 .375-.375h1.271l-.427 1.5h-.844a.375.375 0 0 1-.375-.375v-.75Zm4.125 9.75a.375.375 0 0 1-.375.375h-3a.375.375 0 0 1-.375-.375v-1.125h3.75v1.125Zm16.5 0a.375.375 0 0 1-.375.375h-3a.375.375 0 0 1-.375-.375v-1.125h3.75v1.125Zm.375-2.25a.375.375 0 0 1-.375.375h-20.25a.375.375 0 0 1-.375-.375v-.375h21v.375Zm0-1.125h-21v-3.375a1.128 1.128 0 0 1 1.125-1.125h18.75a1.128 1.128 0 0 1 1.125 1.125v3.375Zm0-5.625a.375.375 0 0 1-.375.375h-.844l-.427-1.5h1.271a.375.375 0 0 1 .375.375v.75Z" fill="#fff" fill-rule="evenodd" data-name="Vector"/></g></g></g></svg>