<svg xmlns="http://www.w3.org/2000/svg" width="112.046" height="79.009" viewBox="490.991 1184 112.046 79.009"><g data-name="Group 51"><path d="M518.805 1184h35a10 10 0 0 1 10 10v34a5 5 0 0 1-5 5h-27a18 18 0 0 1-18-18v-26a5 5 0 0 1 5-5z" fill="#fff1da" fill-rule="evenodd" data-name="Rectangle 158"/><g data-name="plane"><g data-name="Group"><path d="M562.39 1228.941a11.889 11.889 0 0 0-3.888 1.656c-3.14 2-4.968 4.858-4.081 6.38.887 1.522 4.152 1.132 7.293-.869a12.385 12.385 0 0 0 3.19-2.852c.409-.542.482-1.218.187-1.723l-1.152-1.977c-.294-.507-.902-.747-1.55-.615ZM554.502 1201.948c-.985.22-1.944.63-2.819 1.2-2.276 1.452-3.602 3.523-2.96 4.626.643 1.103 3.011.82 5.288-.63a8.992 8.992 0 0 0 2.313-2.07c.296-.392.35-.882.135-1.248l-.834-1.432c-.212-.367-.653-.542-1.123-.446Z" fill="#d5d6db" fill-rule="evenodd" data-name="Vector"/><path d="M541.688 1203.079a1.02 1.02 0 0 0-.656.163l-5.348 3.408c-.447.284-.626.832-.4 1.223.052.09.123.166.21.225l13.181 9.085 17.834-11.365-24.821-2.74Z" fill="#029bc5" fill-rule="evenodd" data-name="Vector"/><path d="m598.065 1201.794-48.532 30.552-28.713 11.426-14.643 2.91-1.61-2.737 80.894-49.947c2.411-1.494 5.097-2.412 7.785-2.659a14.212 14.212 0 0 1 3.462.116 9.67 9.67 0 0 1 2.8.863c.964.479 2.8.534 3.393 1.487.002-.002 1.404 4.373-4.836 7.99Z" fill="#e1e6e9" fill-rule="evenodd" data-name="Vector"/><path d="m550.176 1228.304-20.995 33.47c-.262.47-.107.996.347 1.175.279.11.62.067.906-.115l5.344-3.39a10.48 10.48 0 0 0 2.674-2.435l40.717-47.869-28.993 19.164ZM497.197 1227.186c-.35-.12-.767-.057-1.12.167l-4.417 2.813c-.602.383-.842 1.12-.536 1.645.059.1.134.188.225.26l12.377 9.913 13.013-8.128-19.542-6.67ZM507.874 1243.77l-6.661 9.33c-.098.134-.075.303.051.376.09.053.215.043.316-.024l4.128-2.616a.36.36 0 0 0 .085-.075l9.733-11.835-7.652 4.845ZM595.911 1191.857a14.49 14.49 0 0 0-3.565-.118c-1.18 1.65-1.935 3.506-2.189 5.379-.018.376.285.647.678.605a.837.837 0 0 0 .353-.125l7.608-4.844a9.885 9.885 0 0 0-2.885-.897Z" fill="#029bc5" fill-rule="evenodd" data-name="Vector"/><path d="m579.332 1200.765 4.967-3.137 4.627 7.87-4.967 3.136-4.627-7.869Z" fill="#d5d6db" fill-rule="evenodd" data-name="Vector"/><g data-name="Group"><path d="M576.207 1203.878c-.599.379-.838 1.108-.534 1.627l.492.842c.324.507 1.063.596 1.651.199.56-.378.786-1.064.516-1.571l-.492-.842c-.304-.52-1.035-.634-1.633-.255ZM571.742 1206.65c-.598.38-.838 1.108-.534 1.628l.493.842c.323.506 1.063.595 1.651.198.56-.377.785-1.064.515-1.57l-.492-.843c-.304-.519-1.034-.633-1.633-.255ZM567.276 1209.423c-.598.38-.836 1.108-.532 1.627l.492.842c.324.507 1.063.596 1.651.199.56-.378.786-1.065.516-1.571l-.492-.843c-.304-.52-1.036-.633-1.635-.254ZM562.812 1212.196c-.598.38-.836 1.107-.533 1.627l.493.842c.324.506 1.063.595 1.651.198.56-.377.785-1.064.516-1.571l-.493-.842c-.304-.52-1.035-.633-1.634-.254ZM558.348 1214.968c-.598.38-.837 1.109-.533 1.628l.493.842c.303.52 1.035.633 1.633.254.598-.379.837-1.107.534-1.626l-.493-.842c-.303-.52-1.034-.635-1.633-.256ZM553.884 1217.74c-.598.38-.837 1.109-.533 1.628l.492.843c.304.52 1.035.633 1.634.254.598-.38.837-1.107.533-1.627l-.492-.842c-.303-.52-1.034-.634-1.633-.256h-.001ZM549.42 1220.513c-.6.38-.838 1.108-.534 1.628l.493.842c.304.519 1.036.632 1.634.252.596-.379.835-1.105.532-1.624l-.492-.842c-.304-.52-1.035-.634-1.634-.256ZM544.955 1223.286c-.599.38-.837 1.108-.533 1.627l.492.843c.305.519 1.036.631 1.634.252.597-.38.835-1.106.533-1.624l-.493-.843c-.303-.52-1.035-.634-1.633-.255ZM540.49 1226.058c-.598.38-.836 1.108-.533 1.628l.493.842c.304.519 1.036.631 1.634.252.596-.379.835-1.105.532-1.624l-.492-.842c-.304-.52-1.035-.634-1.634-.256ZM536.024 1228.832c-.598.379-.837 1.107-.533 1.626v.001l.493.843c.304.518 1.036.63 1.634.251.597-.378.835-1.105.533-1.624l-.493-.842c-.304-.52-1.035-.634-1.634-.255ZM531.561 1231.603c-.598.38-.837 1.107-.533 1.627l.493.843c.304.519 1.036.631 1.634.252.596-.379.835-1.106.533-1.624l-.493-.842c-.304-.52-1.035-.634-1.634-.256Z" fill="#3a556a" fill-rule="evenodd" data-name="Vector"/></g></g></g></g></svg>