<svg xmlns="http://www.w3.org/2000/svg" width="20" height="18.585" viewBox="1140 2844.707 20 18.585"><path d="M1158.364 2846.455a5.479 5.479 0 0 0-4.002-1.747 5.485 5.485 0 0 0-4.007 1.746l-.354.373-.353-.373a5.469 5.469 0 0 0-8.012 0 6.134 6.134 0 0 0 0 8.34l7.847 8.275a.715.715 0 0 0 1.037 0l7.844-8.275a6.133 6.133 0 0 0 0-8.34Zm-1.034 7.355-7.329 7.729-7.328-7.73a4.687 4.687 0 0 1 0-6.372 4.04 4.04 0 0 1 5.938 0l.872.92a.736.736 0 0 0 1.037 0l.872-.919a4.04 4.04 0 0 1 5.938 0c1.68 1.8 1.693 4.583 0 6.372Z" fill="#4152ca" fill-rule="evenodd" data-name="Vector"/></svg>