<svg xmlns="http://www.w3.org/2000/svg" width="36" height="36" viewBox="0 -0.05 36 36"><g data-name="LEAF"><path d="M0 17.9a18 18 0 1 1 0 .1z" fill="#f5f5f5" fill-rule="evenodd" data-name="Ellipse 4"/><g data-name="leaf 1"><g data-name="Group"><path d="M24.654 12.15c-.368-.107-9.392-1.005-12.56 3.276-1.404 1.896-1.425 4.496-.07 7.726a16.264 16.264 0 0 0-.89 2.257.456.456 0 1 0 .871.27c2.415-7.809 10.264-11.586 12.671-12.54.235-.094.548-.822-.022-.988Z" fill="#84829a" fill-rule="evenodd" data-name="Vector"/></g><g data-name="Group"><path d="M13.472 24.13c1.306.548 2.612.829 3.827.829 1.092 0 2.11-.225 2.988-.68 1.765-.916 2.844-2.668 3.12-5.068.28-2.445.63-3.977.922-4.914-2.595 1.197-8.16 4.3-10.857 9.833Z" fill="#84829a" fill-rule="evenodd" data-name="Vector"/></g></g></g></svg>