<svg xmlns="http://www.w3.org/2000/svg" width="36" height="36" viewBox="54 -0.05 36 36"><g data-name="map icon"><path d="M54 17.9a18 18 0 1 1 0 .1z" fill="#f5f5f5" fill-rule="evenodd" data-name="Ellipse 5"/><g data-name="map 1"><g data-name="Group"><path d="M77.5 11a.5.5 0 0 0-.223.053l-3.789 1.895-4.284-1.905c-.007-.003-.015-.003-.023-.006a.5.5 0 0 0-.12-.03.744.744 0 0 0-.121 0 .519.519 0 0 0-.12.03c-.007.003-.015.003-.022.006l-4.5 2A.5.5 0 0 0 64 13.5v11a.5.5 0 0 0 .703.457L69 23.047l4.297 1.91c.007.003.015 0 .023.005.12.054.26.05.378-.009.008-.003.017 0 .025-.005l4-2a.5.5 0 0 0 .277-.448v-11a.5.5 0 0 0-.5-.5Zm-9 11.175L65 23.731v-9.906l3.5-1.555v9.905Zm4.5 1.556-3.5-1.556V12.27l3.5 1.555v9.906Zm4-1.54-3 1.5v-9.882l3-1.5v9.882Z" fill="#84829a" fill-rule="evenodd" data-name="Vector"/></g></g></g></svg>