<svg xmlns="http://www.w3.org/2000/svg" width="47" height="48" viewBox="186 2736 47 48"><g data-name="Group 12"><path d="M199 2736h21a13 13 0 0 1 13 13v22a13 13 0 0 1-13 13h-21a13 13 0 0 1-13-13v-22a13 13 0 0 1 13-13z" fill="#f15a2b" fill-rule="evenodd" data-name="Rectangle 21"/><g data-name="water-sport 1"><path d="M218.818 2767.929c-.45.009-.892-.12-1.267-.37a1.715 1.715 0 0 0-1.876 0 2.36 2.36 0 0 1-2.534 0 1.714 1.714 0 0 0-1.877 0 2.36 2.36 0 0 1-2.534 0 1.713 1.713 0 0 0-1.876 0 2.193 2.193 0 0 1-1.156.366l-.022-.648c.304-.008.6-.104.85-.277a2.358 2.358 0 0 1 2.533 0 1.715 1.715 0 0 0 1.877 0 2.359 2.359 0 0 1 2.534 0 1.715 1.715 0 0 0 1.877 0 2.36 2.36 0 0 1 2.534 0 1.719 1.719 0 0 0 1.88 0 2.207 2.207 0 0 1 1.266-.369v.649a1.573 1.573 0 0 0-.939.28 2.21 2.21 0 0 1-1.27.369ZM201.178 2767.929c-.45.009-.892-.12-1.266-.37a1.572 1.572 0 0 0-.939-.279v-.649c.45-.009.892.12 1.267.37.275.19.604.288.938.28.335.008.664-.09.939-.28.374-.25.815-.379 1.265-.37.438-.01.87.113 1.237.353l-.327.56a1.551 1.551 0 0 0-.91-.264 1.565 1.565 0 0 0-.935.279c-.375.25-.818.38-1.269.37ZM218.82 2765.658c-.451.01-.894-.12-1.269-.369a1.717 1.717 0 0 0-1.878 0 2.36 2.36 0 0 1-2.534 0 1.714 1.714 0 0 0-1.875 0 2.358 2.358 0 0 1-2.534 0 1.714 1.714 0 0 0-1.876 0c-.375.25-.817.378-1.267.37-.45.008-.892-.12-1.267-.37a1.57 1.57 0 0 0-.938-.28 1.57 1.57 0 0 0-.937.28 2.2 2.2 0 0 1-1.265.37c-.45.008-.892-.12-1.267-.37a1.57 1.57 0 0 0-.94-.28v-.648c.45-.01.892.12 1.267.369.275.19.604.289.938.28.335.009.663-.09.938-.28a2.2 2.2 0 0 1 1.265-.37c.45-.009.893.12 1.268.37.275.19.603.289.938.28.334.009.663-.09.938-.28a2.358 2.358 0 0 1 2.534 0 1.714 1.714 0 0 0 1.876 0 2.358 2.358 0 0 1 2.534 0 1.714 1.714 0 0 0 1.876 0 2.362 2.362 0 0 1 2.535 0 1.719 1.719 0 0 0 1.88 0c.374-.25.817-.378 1.267-.37v.65a1.573 1.573 0 0 0-.94.28c-.375.248-.818.377-1.268.368ZM218.818 2763.388c-.45.01-.892-.12-1.267-.369a1.572 1.572 0 0 0-.938-.28 1.492 1.492 0 0 0-.71.153l-.286-.584c.31-.151.65-.226.996-.218.45-.01.893.12 1.268.37a1.719 1.719 0 0 0 1.881 0 2.207 2.207 0 0 1 1.265-.369v.649a1.573 1.573 0 0 0-.939.279 2.21 2.21 0 0 1-1.27.37ZM214.404 2763.388c-.45.01-.89-.12-1.265-.369a1.714 1.714 0 0 0-1.876 0 2.36 2.36 0 0 1-2.534 0 1.715 1.715 0 0 0-1.877 0c-.374.25-.816.378-1.266.37-.45.008-.892-.12-1.267-.37a1.572 1.572 0 0 0-.938-.28 1.565 1.565 0 0 0-.935.28c-.375.25-.817.378-1.268.37-.45.008-.892-.12-1.266-.37a1.572 1.572 0 0 0-.939-.28v-.648c.45-.01.892.12 1.267.369.275.19.604.289.938.28.335.009.664-.09.939-.28.374-.25.815-.379 1.265-.37.45-.008.892.12 1.267.37.275.19.603.289.938.28.335.009.663-.09.939-.28a2.36 2.36 0 0 1 2.533 0 1.715 1.715 0 0 0 1.877 0 2.359 2.359 0 0 1 2.535 0 1.645 1.645 0 0 0 1.043.275l.087.643c-.066.008-.131.011-.197.01ZM218.82 2761.117c-.451.01-.894-.12-1.269-.369a1.717 1.717 0 0 0-1.878 0 2.36 2.36 0 0 1-2.534 0 1.714 1.714 0 0 0-1.875 0 2.358 2.358 0 0 1-2.534 0 1.714 1.714 0 0 0-1.876 0c-.375.25-.817.379-1.267.37-.45.009-.892-.12-1.267-.37a1.57 1.57 0 0 0-.938-.28 1.57 1.57 0 0 0-.937.28 2.2 2.2 0 0 1-1.265.37c-.45.009-.892-.12-1.267-.37a1.57 1.57 0 0 0-.94-.28v-.648c.45-.01.892.12 1.267.37.275.19.604.288.938.279.335.009.663-.09.938-.28a2.2 2.2 0 0 1 1.265-.369c.45-.01.893.12 1.268.37.275.19.603.288.938.279.334.009.663-.09.938-.28a2.358 2.358 0 0 1 2.534 0 1.714 1.714 0 0 0 1.876 0 2.358 2.358 0 0 1 2.534 0 1.714 1.714 0 0 0 1.876 0 2.362 2.362 0 0 1 2.535 0 1.719 1.719 0 0 0 1.88 0c.374-.25.817-.378 1.267-.369v.649a1.573 1.573 0 0 0-.94.28c-.375.249-.818.377-1.268.368Z" fill="#fff" fill-rule="evenodd" data-name="Vector"/><path d="m214.198 2760.842-.612-.214a3.555 3.555 0 0 0-.19-2.784l-2.228-4.363a.324.324 0 0 1 .205-.46l4.44-1.184a.567.567 0 0 0-.277-1.1l-5.374 1.284a.769.769 0 0 0-.5 1.114l1.596 2.964a.324.324 0 0 1-.13.438l-2.06 1.135-.312-.568 1.778-.98-1.442-2.682a1.418 1.418 0 0 1 .921-2.052l5.37-1.284a1.216 1.216 0 0 1 .597 2.358l-4.053 1.08 2.046 4.004a4.206 4.206 0 0 1 .225 3.294ZM203.681 2759.906l3.941-2.172.313.568-3.941 2.172-.313-.568Z" fill="#fff" fill-rule="evenodd" data-name="Vector"/><path d="M217.135 2758.685a2.432 2.432 0 1 1 0-4.865 2.432 2.432 0 0 1 0 4.865Zm0-4.216a1.784 1.784 0 1 0 0 3.568 1.784 1.784 0 0 0 0-3.568Z" fill="#fff" fill-rule="evenodd" data-name="Vector"/></g></g></svg>