<svg xmlns="http://www.w3.org/2000/svg" width="36" height="36" viewBox="103 -0.05 36 36"><g data-name="send"><path d="M103 17.9a18 18 0 1 1 0 .1z" fill="#f5f5f5" fill-rule="evenodd" data-name="Ellipse 3"/><g data-name="send 2"><path d="m126.343 13.243-6.317 6.34a1.353 1.353 0 0 0-.228-.105l-4.17-1.411a.583.583 0 0 1 0-1.132l10.348-3.68a.66.66 0 0 1 .21-.036.49.49 0 0 1 .157.024ZM126.746 14.024l-3.681 10.36a.583.583 0 0 1-.583.397.583.583 0 0 1-.584-.409l-1.388-4.17a1.353 1.353 0 0 0-.105-.228l6.353-6.317c.035.12.031.25-.012.367Z" fill="#84829a" fill-rule="evenodd" data-name="Vector"/></g></g></svg>